<svg xmlns="http://www.w3.org/2000/svg" xmlns:xlink="http://www.w3.org/1999/xlink" version="1.1" x="0px" y="0px" viewBox="0 0 1000 1000" enable-background="new 0 0 1000 1000" xml:space="preserve">
	<title>noun-bull</title>
	<style>
		svg { background-color: #141414; stroke: none; stroke-width: 0px; }
		.s0 { fill: #004ae9; background-color: #141414; stroke: none; stroke-width: 0px; }
	</style>
	<rect width="100%" height="100%" fill="#141414"/>
	<path id="Layer" class="s0" d="m949.3 648.8l-61.8-74.3-50-162.2-194.1-169.3-215 87.5-181.7 67.6-82.5 45.4-56.1 12.9-29.4-24.5 14.8-51.4 49.9-54.7-87.4-96.4 17.5 64.6 42.4 31.7-41.4 45.4-23.8 69.2 48.6 47.2 67.7-3-15.3 40.7-1.6 58.9-35.8 39.2-31.1 94.6 3.6 9.2-1 43.4 53.8 0.1-9.6-33.4-10.4-12.7 17.8-38.2 29.7-26.2 82.9-23.2 57.3-45.7 3.1-34.2 20-65.7-9.6 64.4 3.6 30.1 181.5-6.4-2.3-29.1 12.3 30.7 73.3 53-42.8 40.9-38-40.9-44.3 6.1 21.4 32 17.2-1 26.6 39 115.1-37.1 13.3-53.2-30.4-56.2 12.5-46.7 5.6-57.9 5.5 57.9-7.5 39.1 51.4-5.7 61.3-51.8 38.4 2.4-34.8 6.1-54.3 55.7-24.7 43.3-2.8 19.7 16.5 1.9-1 22.4 17.1 19.9 54.3-22.1 39.9 5 31.4-22.1 94.1 44.3-72.7-85z"/>
	<!-- <text id="Created by m. turan ercan from the Noun Project" style="transform: matrix(-10,0,0,10,1000,1150)">
		<tspan x="0" y="0">Created by m. turan ercan from the Noun Project</tspan>
	</text> -->
</svg>